HIERARCHY
ROOT joint_Root
{
	OFFSET 0.0 0.0 0.0
	CHANNELS 6 Xposition Yposition Zposition Zrotation Xrotation Yrotation 
	JOINT Hips
	{
		OFFSET 4.5925 91.4895 -427.239
		CHANNELS 6 Xposition Yposition Zposition Zrotation Xrotation Yrotation 
		JOINT Spine
		{
			OFFSET 15.7357 0.0 0.0
			CHANNELS 6 Xposition Yposition Zposition Zrotation Xrotation Yrotation 
			JOINT Chest
			{
				OFFSET 8.98455 -0.406207 0.0
				CHANNELS 6 Xposition Yposition Zposition Zrotation Xrotation Yrotation 
				JOINT Neck
				{
					OFFSET 16.3773 0.0 0.0
					CHANNELS 6 Xposition Yposition Zposition Zrotation Xrotation Yrotation 
					JOINT Head
					{
						OFFSET 6.45672 0.0 0.0
						CHANNELS 6 Xposition Yposition Zposition Zrotation Xrotation Yrotation 
						End Site
						{
							OFFSET 0.0 0.0 0.0
						}
					}
				}
				JOINT Shoulder_L
				{
					OFFSET 12.9942 -0.242716 4.98039
					CHANNELS 6 Xposition Yposition Zposition Zrotation Xrotation Yrotation 
					JOINT UpperArm_L
					{
						OFFSET 5.34809 0.0 0.0
						CHANNELS 6 Xposition Yposition Zposition Zrotation Xrotation Yrotation 
						JOINT LowerArm_L
						{
							OFFSET 24.3286 1.87007e-05 0.0
							CHANNELS 6 Xposition Yposition Zposition Zrotation Xrotation Yrotation 
							JOINT Hand_L
							{
								OFFSET 22.2916 0.0 0.0
								CHANNELS 6 Xposition Yposition Zposition Zrotation Xrotation Yrotation 
								End Site
								{
									OFFSET 0.0 0.0 0.0
								}
							}
						}
					}
				}
				JOINT Shoulder_R
				{
					OFFSET 12.9945 -0.242716 -4.98039
					CHANNELS 6 Xposition Yposition Zposition Zrotation Xrotation Yrotation 
					JOINT UpperArm_R
					{
						OFFSET -5.34813 0.0 0.0
						CHANNELS 6 Xposition Yposition Zposition Zrotation Xrotation Yrotation 
						JOINT LowerArm_R
						{
							OFFSET -24.3289 0.000322201 0.0
							CHANNELS 6 Xposition Yposition Zposition Zrotation Xrotation Yrotation 
							JOINT Hand_R
							{
								OFFSET -22.2915 -0.000108084 0.0
								CHANNELS 6 Xposition Yposition Zposition Zrotation Xrotation Yrotation 
								End Site
								{
									OFFSET 0.0 0.0 0.0
								}
							}
						}
					}
				}
			}
		}
		JOINT UpperLeg_L
		{
			OFFSET -2.19248 -6.46944 0.0
			CHANNELS 6 Xposition Yposition Zposition Zrotation Xrotation Yrotation 
			JOINT LowerLeg_L
			{
				OFFSET 39.0811 0.0 -1.23785e-05
				CHANNELS 6 Xposition Yposition Zposition Zrotation Xrotation Yrotation 
				JOINT Foot_L
				{
					OFFSET 40.9854 0.0 -1.26872e-05
					CHANNELS 6 Xposition Yposition Zposition Zrotation Xrotation Yrotation 
					JOINT Toes_L
					{
						OFFSET 11.7543 0.0 0.0
						CHANNELS 6 Xposition Yposition Zposition Zrotation Xrotation Yrotation 
						End Site
						{
							OFFSET 0.0 0.0 0.0
						}
					}
				}
			}
		}
		JOINT UpperLeg_R
		{
			OFFSET -2.19251 6.46944 0.0
			CHANNELS 6 Xposition Yposition Zposition Zrotation Xrotation Yrotation 
			JOINT LowerLeg_R
			{
				OFFSET -39.0811 -0.00228153 -0.0401928
				CHANNELS 6 Xposition Yposition Zposition Zrotation Xrotation Yrotation 
				JOINT Foot_R
				{
					OFFSET -40.9854 0.0 0.0
					CHANNELS 6 Xposition Yposition Zposition Zrotation Xrotation Yrotation 
					JOINT Toes_R
					{
						OFFSET -11.7543 0.0 0.0
						CHANNELS 6 Xposition Yposition Zposition Zrotation Xrotation Yrotation 
						End Site
						{
							OFFSET 0.0 0.0 0.0
						}
					}
				}
			}
		}
	}
}
MOTION
Frames:	6
Frame Time:	0.0333333
0.000000 0.000000 0.000000 0.000000 0.000000 -0.000000 -2.769520 90.501600 -5.476160 88.566500 0.295871 11.980500 15.735700 0.000005 -0.000001 87.303000 74.265400 -88.450100 8.984550 -0.406207 -0.000000 23.659200 -1.593230 -1.973150 16.377300 -0.000001 -0.000001 15.002700 -4.983520 1.163860 6.456720 -0.000001 -0.000000 -11.573000 -4.062750 -3.881800 12.994200 -0.242716 4.980390 -91.210000 6.514680 -79.454100 5.348090 -0.000007 -0.000001 -54.045600 32.636000 -32.128900 24.328600 0.000019 0.000005 10.313800 22.821200 -25.135600 22.291600 -0.000001 0.000005 10.907200 5.247990 1.485860 12.994500 -0.242716 -4.980390 89.351000 3.282710 -78.810600 -5.348130 -0.000001 -0.000004 -71.862600 -10.253100 -71.635300 -24.328900 0.000322 -0.000009 17.458700 -6.437890 -109.622000 -22.291500 -0.000108 -0.000004 27.730100 5.278150 0.676975 -2.192480 -6.469440 -0.000000 -172.039000 -12.549900 -4.356950 39.081100 -0.000007 -0.000012 -0.170675 0.254854 33.810400 40.985400 -0.000006 -0.000013 -0.992309 6.137400 -66.920400 11.754300 -0.000000 0.000003 -0.000168 -0.001602 -16.638300 -2.192510 6.469440 -0.000001 175.445000 25.862900 178.526000 -39.081100 -0.002282 -0.040193 -0.191857 0.304091 32.690900 -40.985400 0.000008 0.000006 5.451290 13.830400 -69.013800 -11.754300 -0.000006 -0.000006 -0.002680 -0.036927 -18.074800
0.000000 0.000000 0.000000 0.000000 0.000000 -0.000000 -2.764230 90.505200 -5.481170 88.572900 0.282190 11.964300 15.735700 0.000005 -0.000001 87.299400 74.253400 -88.453600 8.984550 -0.406207 -0.000000 23.683000 -1.597380 -1.986240 16.377300 -0.000001 -0.000001 14.953000 -4.971690 1.131940 6.456720 -0.000001 -0.000000 -11.609800 -4.060470 -3.860020 12.994200 -0.242716 4.980390 -91.213600 6.534450 -79.455100 5.348090 -0.000007 -0.000001 -53.987100 32.634700 -32.209200 24.328600 0.000019 0.000005 10.322000 22.808500 -25.165000 22.291600 -0.000001 0.000005 10.905300 5.247130 1.508400 12.994500 -0.242716 -4.980390 89.352500 3.265770 -78.779200 -5.348130 -0.000001 -0.000004 -71.899700 -10.326600 -71.780000 -24.328900 0.000322 -0.000009 17.477300 -6.432640 -109.587000 -22.291500 -0.000108 -0.000004 27.673200 5.275090 0.760034 -2.192480 -6.469440 -0.000000 -172.056000 -12.574900 -4.365500 39.081100 -0.000007 -0.000012 -0.166546 0.248833 33.795100 40.985400 -0.000006 -0.000013 -0.987964 6.118910 -66.911700 11.754300 -0.000000 0.000003 -0.000159 -0.001526 -16.635500 -2.192510 6.469440 -0.000001 175.448000 25.848300 178.509000 -39.081100 -0.002282 -0.040193 -0.191544 0.303751 32.678100 -40.985400 0.000008 0.000006 5.448830 13.838900 -69.003400 -11.754300 -0.000006 -0.000006 -0.002629 -0.036329 -18.050400
0.000000 0.000000 0.000000 0.000000 0.000000 -0.000000 -2.752640 90.500500 -5.482500 88.559000 0.313632 11.959800 15.735700 0.000005 -0.000001 87.248700 74.245400 -88.403100 8.984550 -0.406207 -0.000000 23.697600 -1.625220 -1.980640 16.377300 -0.000001 -0.000001 14.871800 -4.964410 1.163080 6.456720 -0.000001 -0.000000 -11.591300 -4.010240 -3.894060 12.994200 -0.242716 4.980390 -91.217300 6.543670 -79.437700 5.348090 -0.000007 -0.000001 -53.901500 32.690800 -32.288000 24.328600 0.000019 0.000005 10.319700 22.776300 -25.189500 22.291600 -0.000001 0.000005 10.930300 5.246220 1.532510 12.994500 -0.242716 -4.980390 89.351700 3.261580 -78.751100 -5.348130 -0.000001 -0.000004 -71.957000 -10.393200 -71.856400 -24.328900 0.000322 -0.000009 17.326800 -6.376610 -109.596000 -22.291500 -0.000108 -0.000004 27.571800 5.280480 0.612908 -2.192480 -6.469440 -0.000000 -172.045000 -12.540500 -4.385940 39.081100 -0.000007 -0.000012 -0.173007 0.258205 33.823900 40.985400 -0.000006 -0.000013 -0.987790 6.122370 -66.929200 11.754300 -0.000000 0.000003 -0.000176 -0.001663 -16.640500 -2.192510 6.469440 -0.000001 175.447000 25.868800 178.498000 -39.081100 -0.002282 -0.040193 -0.195934 0.310393 32.695100 -40.985400 0.000008 0.000006 5.442150 13.842000 -69.007900 -11.754300 -0.000006 -0.000006 -0.002790 -0.038205 -18.126800
0.000000 0.000000 0.000000 0.000000 0.000000 -0.000000 -2.747010 90.508800 -5.491980 88.576200 0.314857 11.957100 15.735700 0.000005 -0.000001 87.227300 74.240100 -88.390000 8.984550 -0.406207 -0.000000 23.707400 -1.638300 -1.994560 16.377300 -0.000001 -0.000001 14.781400 -4.931810 1.129080 6.456720 -0.000001 -0.000000 -11.548500 -4.024550 -3.845230 12.994200 -0.242716 4.980390 -91.217100 6.551670 -79.452300 5.348090 -0.000007 -0.000001 -53.860900 32.717000 -32.326800 24.328600 0.000019 0.000005 10.314400 22.757800 -25.194800 22.291600 -0.000001 0.000005 10.985900 5.246480 1.525490 12.994500 -0.242716 -4.980390 89.348700 3.268740 -78.725400 -5.348130 -0.000001 -0.000004 -71.940200 -10.413300 -71.930500 -24.328900 0.000322 -0.000009 17.426400 -6.403900 -109.562000 -22.291500 -0.000108 -0.000004 27.726700 5.278670 0.662370 -2.192480 -6.469440 -0.000000 -172.075000 -12.535200 -4.376530 39.081100 -0.000007 -0.000012 -0.170772 0.255319 33.777200 40.985400 -0.000006 -0.000013 -0.982708 6.120390 -66.897100 11.754300 -0.000000 0.000003 -0.000164 -0.001569 -16.637100 -2.192510 6.469440 -0.000001 175.436000 25.870400 178.508000 -39.081100 -0.002282 -0.040193 -0.189597 0.300890 32.663200 -40.985400 0.000008 0.000006 5.431670 13.821500 -68.987900 -11.754300 -0.000006 -0.000006 -0.002612 -0.036136 -18.042600
0.000000 0.000000 0.000000 0.000000 0.000000 -0.000000 -2.733840 90.507100 -5.494690 88.575600 0.304993 11.936700 15.735700 0.000005 -0.000001 87.231300 74.233300 -88.387800 8.984550 -0.406207 -0.000000 23.721200 -1.636050 -1.982320 16.377300 -0.000001 -0.000001 14.695500 -4.944110 1.120400 6.456720 -0.000001 -0.000000 -11.557100 -4.011660 -3.849480 12.994200 -0.242716 4.980390 -91.222300 6.582600 -79.457000 5.348090 -0.000007 -0.000001 -53.817200 32.720900 -32.396300 24.328600 0.000019 0.000005 10.318200 22.762500 -25.198800 22.291600 -0.000001 0.000005 10.961100 5.245580 1.549160 12.994500 -0.242716 -4.980390 89.348500 3.264050 -78.706400 -5.348130 -0.000001 -0.000004 -71.963000 -10.459400 -72.037400 -24.328900 0.000322 -0.000009 17.400300 -6.383350 -109.533000 -22.291500 -0.000108 -0.000004 27.796000 5.279520 0.639276 -2.192480 -6.469440 -0.000000 -172.082000 -12.561000 -4.401810 39.081100 -0.000007 -0.000012 -0.173106 0.258684 33.790000 40.985400 -0.000006 -0.000013 -0.975090 6.111570 -66.904400 11.754300 -0.000000 0.000003 -0.000167 -0.001588 -16.637700 -2.192510 6.469440 -0.000001 175.435000 25.865100 178.469000 -39.081100 -0.002282 -0.040193 -0.193709 0.307161 32.675200 -40.985400 0.000008 0.000006 5.429740 13.849800 -68.982000 -11.754300 -0.000006 -0.000006 -0.002726 -0.037463 -18.096600
0.000000 0.000000 0.000000 0.000000 0.000000 -0.000000 -2.730660 90.514000 -5.505120 88.571000 0.300776 11.956300 15.735700 0.000005 -0.000001 87.213700 74.224100 -88.371400 8.984550 -0.406207 -0.000000 23.739000 -1.646530 -1.982150 16.377300 -0.000001 -0.000001 14.626500 -4.932400 1.119100 6.456720 -0.000001 -0.000000 -11.584600 -4.011580 -3.819610 12.994200 -0.242716 4.980390 -91.220600 6.569180 -79.450400 5.348090 -0.000007 -0.000001 -53.865700 32.688200 -32.389200 24.328600 0.000019 0.000005 10.303400 22.726400 -25.199800 22.291600 -0.000001 0.000005 10.898900 5.246070 1.536250 12.994500 -0.242716 -4.980390 89.343600 3.284480 -78.691200 -5.348130 -0.000001 -0.000004 -71.984700 -10.466000 -72.120200 -24.328900 0.000322 -0.000009 17.444600 -6.388530 -109.499000 -22.291500 -0.000108 -0.000004 27.791400 5.277360 0.698348 -2.192480 -6.469440 -0.000000 -172.080000 -12.564200 -4.378830 39.081100 -0.000007 -0.000012 -0.169406 0.253428 33.761400 40.985400 -0.000006 -0.000013 -0.970421 6.111560 -66.879800 11.754300 -0.000000 0.000003 -0.000173 -0.001641 -16.639700 -2.192510 6.469440 -0.000001 175.431000 25.873200 178.507000 -39.081100 -0.002282 -0.040193 -0.190653 0.302833 32.637700 -40.985400 0.000008 0.000006 5.427290 13.856900 -68.960100 -11.754300 -0.000006 -0.000006 -0.002778 -0.038068 -18.121200
